<mxfile host="65bd71144e">
    <diagram id="_7vrOo9SwG7pFCa6eH-G" name="Page-1">
        <mxGraphModel dx="3487" dy="1438" grid="1" gridSize="10" guides="1" tooltips="1" connect="1" arrows="1" fold="1" page="1" pageScale="1" pageWidth="827" pageHeight="1169" math="0" shadow="0">
            <root>
                <mxCell id="0"/>
                <mxCell id="1" parent="0"/>
                <mxCell id="2" value="" style="shape=folder;fontStyle=1;spacingTop=10;tabWidth=194;tabHeight=22;tabPosition=left;html=1;rounded=0;shadow=0;comic=0;labelBackgroundColor=none;strokeWidth=1;fillColor=none;fontFamily=Verdana;fontSize=10;align=center;" vertex="1" parent="1">
                    <mxGeometry x="-280" y="115" width="2700" height="940" as="geometry"/>
                </mxCell>
                <mxCell id="3" style="edgeStyle=elbowEdgeStyle;rounded=0;html=1;entryX=0.559;entryY=0.251;entryPerimeter=0;dashed=1;labelBackgroundColor=none;startFill=0;endArrow=open;endFill=0;endSize=10;fontFamily=Verdana;fontSize=10;" edge="1" parent="1">
                    <mxGeometry relative="1" as="geometry">
                        <mxPoint x="709.363636363636" y="594.5" as="sourcePoint"/>
                    </mxGeometry>
                </mxCell>
                <mxCell id="4" style="edgeStyle=none;rounded=0;html=1;dashed=1;labelBackgroundColor=none;startFill=0;endArrow=open;endFill=0;endSize=10;fontFamily=Verdana;fontSize=10;entryX=-0.003;entryY=0.411;entryPerimeter=0;" edge="1" parent="1">
                    <mxGeometry relative="1" as="geometry">
                        <mxPoint x="739.2069425189297" y="594.5" as="sourcePoint"/>
                    </mxGeometry>
                </mxCell>
                <mxCell id="5" style="edgeStyle=none;rounded=0;html=1;dashed=1;labelBackgroundColor=none;startFill=0;endArrow=open;endFill=0;endSize=10;fontFamily=Verdana;fontSize=10;entryX=1.013;entryY=0.444;entryPerimeter=0;" edge="1" parent="1">
                    <mxGeometry relative="1" as="geometry">
                        <mxPoint x="664.6881765195672" y="594.5" as="sourcePoint"/>
                    </mxGeometry>
                </mxCell>
                <mxCell id="6" value="&amp;lt;&amp;lt;model&amp;gt;&amp;gt;" style="text;html=1;align=left;verticalAlign=top;spacingTop=-4;fontSize=10;fontFamily=Verdana" vertex="1" parent="1">
                    <mxGeometry x="-230" y="114.5" width="130" height="20" as="geometry"/>
                </mxCell>
                <mxCell id="28" style="edgeStyle=none;html=1;exitX=0;exitY=0;exitDx=330;exitDy=132;exitPerimeter=0;entryX=0;entryY=0;entryDx=0;entryDy=115;entryPerimeter=0;" edge="1" parent="1" source="7" target="13">
                    <mxGeometry relative="1" as="geometry"/>
                </mxCell>
                <mxCell id="29" style="edgeStyle=none;html=1;exitX=0;exitY=0;exitDx=330;exitDy=132;exitPerimeter=0;entryX=0;entryY=0;entryDx=315;entryDy=20;entryPerimeter=0;" edge="1" parent="1" source="7" target="16">
                    <mxGeometry relative="1" as="geometry"/>
                </mxCell>
                <mxCell id="7" value="" style="shape=folder;fontStyle=1;spacingTop=10;tabWidth=123;tabHeight=24;tabPosition=left;html=1;rounded=0;shadow=0;comic=0;labelBackgroundColor=none;strokeWidth=1;fontFamily=Verdana;fontSize=10;align=center;" vertex="1" parent="1">
                    <mxGeometry x="-210" y="160" width="330" height="240" as="geometry"/>
                </mxCell>
                <mxCell id="8" value="UI 모듈" style="text;html=1;align=left;verticalAlign=top;spacingTop=-4;fontSize=10;fontFamily=Verdana" vertex="1" parent="1">
                    <mxGeometry x="-210" y="160" width="130" height="30" as="geometry"/>
                </mxCell>
                <mxCell id="9" value="&lt;div&gt;로그인&lt;/div&gt;&lt;b&gt;Component&lt;/b&gt;" style="html=1;dropTarget=0;whiteSpace=wrap;" vertex="1" parent="1">
                    <mxGeometry x="-200" y="210" width="140" height="60" as="geometry"/>
                </mxCell>
                <mxCell id="10" value="&lt;div&gt;결과&lt;/div&gt;&lt;b&gt;Component&lt;/b&gt;" style="html=1;dropTarget=0;whiteSpace=wrap;" vertex="1" parent="1">
                    <mxGeometry x="-200" y="320" width="140" height="60" as="geometry"/>
                </mxCell>
                <mxCell id="11" value="&lt;div&gt;순위표&lt;/div&gt;&lt;b&gt;Component&lt;/b&gt;" style="html=1;dropTarget=0;whiteSpace=wrap;" vertex="1" parent="1">
                    <mxGeometry x="-30" y="320" width="140" height="60" as="geometry"/>
                </mxCell>
                <mxCell id="12" value="&lt;div&gt;&lt;b style=&quot;background-color: initial;&quot;&gt;퀴즈&lt;/b&gt;&lt;/div&gt;&lt;div&gt;&lt;b style=&quot;background-color: initial;&quot;&gt;Component&lt;/b&gt;&lt;br&gt;&lt;/div&gt;" style="html=1;dropTarget=0;whiteSpace=wrap;" vertex="1" parent="1">
                    <mxGeometry x="-30" y="210" width="140" height="60" as="geometry"/>
                </mxCell>
                <mxCell id="33" style="edgeStyle=orthogonalEdgeStyle;curved=1;html=1;exitX=0.25;exitY=1;exitDx=0;exitDy=0;exitPerimeter=0;entryX=0;entryY=0;entryDx=0;entryDy=215;entryPerimeter=0;" edge="1" parent="1" source="13" target="19">
                    <mxGeometry relative="1" as="geometry"/>
                </mxCell>
                <mxCell id="13" value="" style="shape=folder;fontStyle=1;spacingTop=10;tabWidth=140;tabHeight=20;tabPosition=left;html=1;rounded=0;shadow=0;comic=0;labelBackgroundColor=none;strokeWidth=1;fontFamily=Verdana;fontSize=10;align=center;" vertex="1" parent="1">
                    <mxGeometry x="180" y="440" width="400" height="210" as="geometry"/>
                </mxCell>
                <mxCell id="14" value="사용자 관리모듈" style="text;html=1;align=left;verticalAlign=top;spacingTop=-4;fontSize=10;fontFamily=Verdana" vertex="1" parent="1">
                    <mxGeometry x="180" y="440" width="130" height="20" as="geometry"/>
                </mxCell>
                <mxCell id="15" value="&lt;p style=&quot;text-align: left; margin: 6px 0px 0px;&quot;&gt;&lt;span style=&quot;white-space: pre;&quot;&gt;&#9;&lt;/span&gt;&lt;span style=&quot;white-space: pre;&quot;&gt;&#9;&lt;/span&gt;&lt;span style=&quot;white-space: pre;&quot;&gt;&#9;&lt;/span&gt;&lt;span style=&quot;white-space: pre;&quot;&gt;&#9;&lt;/span&gt;&lt;span style=&quot;white-space: pre;&quot;&gt;&#9;&lt;/span&gt;사용자 관리&lt;br&gt;&lt;/p&gt;&lt;hr size=&quot;1&quot; style=&quot;border-style:solid;&quot;&gt;&lt;p style=&quot;margin:0px;margin-left:8px;&quot;&gt;&lt;/p&gt;&lt;ul&gt;&lt;li&gt;&amp;nbsp;createUser(usename:String,password:String)&lt;/li&gt;&lt;li&gt;login(username:string,password:string)&lt;/li&gt;&lt;li&gt;logout():void&lt;/li&gt;&lt;li&gt;UpdateUserInfo(userId:string,newInfo:Map(string,object)&lt;/li&gt;&lt;li&gt;getUserInfo(userId:string)&lt;/li&gt;&lt;/ul&gt;&lt;p&gt;&lt;/p&gt;" style="align=left;overflow=fill;html=1;dropTarget=0;whiteSpace=wrap;" vertex="1" parent="1">
                    <mxGeometry x="190" y="480" width="350" height="120" as="geometry"/>
                </mxCell>
                <mxCell id="34" style="edgeStyle=orthogonalEdgeStyle;curved=1;html=1;exitX=0;exitY=0;exitDx=0;exitDy=158.75;exitPerimeter=0;entryX=0;entryY=0;entryDx=0;entryDy=85;entryPerimeter=0;" edge="1" parent="1" source="16" target="19">
                    <mxGeometry relative="1" as="geometry"/>
                </mxCell>
                <mxCell id="35" style="edgeStyle=orthogonalEdgeStyle;curved=1;html=1;exitX=0;exitY=0;exitDx=490;exitDy=112.5;exitPerimeter=0;entryX=0;entryY=0;entryDx=0;entryDy=85;entryPerimeter=0;" edge="1" parent="1" source="16" target="22">
                    <mxGeometry relative="1" as="geometry"/>
                </mxCell>
                <mxCell id="16" value="" style="shape=folder;fontStyle=1;spacingTop=10;tabWidth=140;tabHeight=20;tabPosition=left;html=1;rounded=0;shadow=0;comic=0;labelBackgroundColor=none;strokeWidth=1;fontFamily=Verdana;fontSize=10;align=center;" vertex="1" parent="1">
                    <mxGeometry x="620" y="445" width="490" height="205" as="geometry"/>
                </mxCell>
                <mxCell id="17" value="퀴즈 관리 묘듈" style="text;html=1;align=left;verticalAlign=top;spacingTop=-4;fontSize=10;fontFamily=Verdana" vertex="1" parent="1">
                    <mxGeometry x="630" y="445" width="130" height="20" as="geometry"/>
                </mxCell>
                <mxCell id="18" value="&lt;p style=&quot;margin:0px;margin-top:6px;text-align:center;&quot;&gt;&lt;b&gt;퀴즈관리&lt;/b&gt;&lt;/p&gt;&lt;hr size=&quot;1&quot; style=&quot;border-style:solid;&quot;&gt;&lt;p style=&quot;margin:0px;margin-left:8px;&quot;&gt;generateQuiz(카테고리:String, 문제수:int):퀴즈&lt;/p&gt;&lt;p style=&quot;margin:0px;margin-left:8px;&quot;&gt;submitQuiz(사용자 ID:String, 퀴즈 ID:String, 정답:List(String):결과&lt;/p&gt;&lt;p style=&quot;margin:0px;margin-left:8px;&quot;&gt;getQuizResults(사용자ID:string,퀴즈ID:string):결과&lt;/p&gt;" style="align=left;overflow=fill;html=1;dropTarget=0;whiteSpace=wrap;" vertex="1" parent="1">
                    <mxGeometry x="670" y="500" width="390" height="110" as="geometry"/>
                </mxCell>
                <mxCell id="19" value="" style="shape=folder;fontStyle=1;spacingTop=10;tabWidth=140;tabHeight=20;tabPosition=left;html=1;rounded=0;shadow=0;comic=0;labelBackgroundColor=none;strokeWidth=1;fontFamily=Verdana;fontSize=10;align=center;" vertex="1" parent="1">
                    <mxGeometry x="970" y="770" width="521" height="280" as="geometry"/>
                </mxCell>
                <mxCell id="20" value="DB 모듈" style="text;html=1;align=left;verticalAlign=top;spacingTop=-4;fontSize=10;fontFamily=Verdana" vertex="1" parent="1">
                    <mxGeometry x="980" y="770" width="130" height="20" as="geometry"/>
                </mxCell>
                <mxCell id="21" value="&lt;p style=&quot;margin:0px;margin-top:6px;text-align:center;&quot;&gt;&lt;b&gt;DB&lt;/b&gt;&lt;/p&gt;&lt;hr size=&quot;1&quot; style=&quot;border-style:solid;&quot;&gt;&lt;p style=&quot;margin:0px;margin-left:8px;&quot;&gt;saveUser(사용자:user):void&lt;/p&gt;&lt;p style=&quot;margin:0px;margin-left:8px;&quot;&gt;getUser(사용자ID:string):user&lt;/p&gt;&lt;p style=&quot;margin:0px;margin-left:8px;&quot;&gt;saveQuiz(퀴즈:quiz):void&lt;/p&gt;&lt;p style=&quot;margin:0px;margin-left:8px;&quot;&gt;getQuiz(퀴즈ID:String):quiz&lt;/p&gt;&lt;p style=&quot;margin:0px;margin-left:8px;&quot;&gt;saveResults(사용자ID:string, 퀴즈ID:string, 결과:result):vioid&lt;/p&gt;&lt;p style=&quot;margin:0px;margin-left:8px;&quot;&gt;getResults(사용자ID:String,퀴즈ID:String):Result&lt;/p&gt;&lt;p style=&quot;margin:0px;margin-left:8px;&quot;&gt;&lt;br&gt;&lt;/p&gt;" style="align=left;overflow=fill;html=1;dropTarget=0;whiteSpace=wrap;" vertex="1" parent="1">
                    <mxGeometry x="1020" y="825" width="390" height="175" as="geometry"/>
                </mxCell>
                <mxCell id="22" value="" style="shape=folder;fontStyle=1;spacingTop=10;tabWidth=140;tabHeight=20;tabPosition=left;html=1;rounded=0;shadow=0;comic=0;labelBackgroundColor=none;strokeWidth=1;fontFamily=Verdana;fontSize=10;align=center;" vertex="1" parent="1">
                    <mxGeometry x="1750" y="750" width="521" height="280" as="geometry"/>
                </mxCell>
                <mxCell id="23" value="TMDB" style="text;html=1;align=left;verticalAlign=top;spacingTop=-4;fontSize=10;fontFamily=Verdana" vertex="1" parent="1">
                    <mxGeometry x="1760" y="750" width="130" height="20" as="geometry"/>
                </mxCell>
                <mxCell id="24" value="&lt;p style=&quot;margin:0px;margin-top:6px;text-align:center;&quot;&gt;&lt;b&gt;TMDB&lt;/b&gt;&lt;/p&gt;&lt;hr size=&quot;1&quot; style=&quot;border-style:solid;&quot;&gt;&lt;p style=&quot;margin:0px;margin-left:8px;&quot;&gt;fetchMOviesByCategory(카테고리:String):list&amp;lt;movie&amp;gt;&lt;br&gt;fetchMovieDetails(영화ID:string):movie&lt;/p&gt;&lt;p style=&quot;margin:0px;margin-left:8px;&quot;&gt;searchMovies(검색어:String):list&amp;lt;Movie&amp;gt;&lt;/p&gt;&lt;p style=&quot;margin:0px;margin-left:8px;&quot;&gt;&lt;br&gt;&lt;/p&gt;" style="align=left;overflow=fill;html=1;dropTarget=0;whiteSpace=wrap;" vertex="1" parent="1">
                    <mxGeometry x="1800" y="805" width="390" height="175" as="geometry"/>
                </mxCell>
                <mxCell id="36" value="상호작용" style="text;html=1;strokeColor=none;fillColor=none;align=center;verticalAlign=middle;whiteSpace=wrap;rounded=0;" vertex="1" parent="1">
                    <mxGeometry x="140" y="370" width="60" height="30" as="geometry"/>
                </mxCell>
                <mxCell id="37" value="데이터 저장 및 가져옴" style="text;html=1;strokeColor=none;fillColor=none;align=center;verticalAlign=middle;whiteSpace=wrap;rounded=0;" vertex="1" parent="1">
                    <mxGeometry x="290" y="700" width="130" height="30" as="geometry"/>
                </mxCell>
                <mxCell id="38" value="상호작용" style="text;html=1;strokeColor=none;fillColor=none;align=center;verticalAlign=middle;whiteSpace=wrap;rounded=0;" vertex="1" parent="1">
                    <mxGeometry x="680" y="380" width="60" height="30" as="geometry"/>
                </mxCell>
                <mxCell id="39" value="데이터 저장 및 가져옴" style="text;html=1;strokeColor=none;fillColor=none;align=center;verticalAlign=middle;whiteSpace=wrap;rounded=0;" vertex="1" parent="1">
                    <mxGeometry x="610" y="700" width="130" height="30" as="geometry"/>
                </mxCell>
                <mxCell id="40" value="데이터 가져옴" style="text;html=1;strokeColor=none;fillColor=none;align=center;verticalAlign=middle;whiteSpace=wrap;rounded=0;" vertex="1" parent="1">
                    <mxGeometry x="1430" y="680" width="130" height="30" as="geometry"/>
                </mxCell>
                <mxCell id="61" value="요구사항" style="swimlane;whiteSpace=wrap;html=1;startSize=23;" vertex="1" collapsed="1" parent="1">
                    <mxGeometry x="-480" y="109.5" width="140" height="30" as="geometry">
                        <mxRectangle x="-770" y="-120" width="257" height="150" as="alternateBounds"/>
                    </mxGeometry>
                </mxCell>
                <mxCell id="62" value="회원가입 및 로그인이 가능" style="text;strokeColor=none;fillColor=none;align=left;verticalAlign=middle;spacingLeft=4;spacingRight=4;overflow=hidden;points=[[0,0.5],[1,0.5]];portConstraint=eastwest;rotatable=0;whiteSpace=wrap;html=1;" vertex="1" parent="61">
                    <mxGeometry y="20" width="257" height="30" as="geometry"/>
                </mxCell>
                <mxCell id="63" value="퀴즈에 참여가 가능해야함&lt;br&gt;" style="text;strokeColor=none;fillColor=none;align=left;verticalAlign=middle;spacingLeft=4;spacingRight=4;overflow=hidden;points=[[0,0.5],[1,0.5]];portConstraint=eastwest;rotatable=0;whiteSpace=wrap;html=1;" vertex="1" parent="61">
                    <mxGeometry y="50" width="257" height="30" as="geometry"/>
                </mxCell>
                <mxCell id="64" value="퀴즈 결과 확인" style="text;strokeColor=none;fillColor=none;align=left;verticalAlign=middle;spacingLeft=4;spacingRight=4;overflow=hidden;points=[[0,0.5],[1,0.5]];portConstraint=eastwest;rotatable=0;whiteSpace=wrap;html=1;" vertex="1" parent="61">
                    <mxGeometry y="80" width="257" height="30" as="geometry"/>
                </mxCell>
                <mxCell id="65" value="사용자 정보 관리" style="text;strokeColor=none;fillColor=none;align=left;verticalAlign=middle;spacingLeft=4;spacingRight=4;overflow=hidden;points=[[0,0.5],[1,0.5]];portConstraint=eastwest;rotatable=0;whiteSpace=wrap;html=1;" vertex="1" parent="61">
                    <mxGeometry y="100" width="257" height="30" as="geometry"/>
                </mxCell>
                <mxCell id="66" value="순위 표 확인" style="text;strokeColor=none;fillColor=none;align=left;verticalAlign=middle;spacingLeft=4;spacingRight=4;overflow=hidden;points=[[0,0.5],[1,0.5]];portConstraint=eastwest;rotatable=0;whiteSpace=wrap;html=1;" vertex="1" parent="61">
                    <mxGeometry y="120" width="257" height="30" as="geometry"/>
                </mxCell>
            </root>
        </mxGraphModel>
    </diagram>
</mxfile>